<?xml version="1.0" standalone="no"?>
<!DOCTYPE svg PUBLIC "-//W3C//DTD SVG 20010904//EN"
 "http://www.w3.org/TR/2001/REC-SVG-20010904/DTD/svg10.dtd">
<svg version="1.0" xmlns="http://www.w3.org/2000/svg"
 width="801.000000pt" height="685.000000pt" viewBox="0 0 801.000000 685.000000"
 preserveAspectRatio="xMidYMid meet">

<g transform="translate(0.000000,685.000000) scale(0.100000,-0.100000)"
fill="#000000" stroke="none">
<path d="M1212 5450 c-103 -22 -214 -117 -266 -226 -47 -99 -56 -154 -56 -341
l0 -173 -66 0 c-63 0 -65 -1 -58 -22 14 -47 56 -120 89 -157 l35 -38 0 -522 0
-522 148 3 147 3 3 513 2 512 60 0 60 0 0 115 0 115 -60 0 -60 0 0 278 c0 268
1 279 23 322 77 151 224 87 235 -103 5 -75 -11 -130 -53 -187 -32 -43 -32 -90
0 -158 41 -89 115 -103 194 -36 61 53 83 123 79 249 -3 88 -7 108 -34 165 -42
87 -90 140 -164 179 -51 27 -75 34 -138 37 -42 1 -96 -1 -120 -6z"/>
<path d="M1762 4408 l3 -953 148 -3 147 -3 0 956 0 955 -150 0 -150 0 2 -952z"/>
<path d="M6287 5194 c-33 -18 -77 -103 -77 -149 0 -26 5 -32 33 -40 48 -15 81
-87 80 -175 -1 -65 -23 -161 -50 -212 -12 -24 -12 -28 1 -28 20 0 149 194 174
263 12 31 27 84 33 119 29 160 -79 284 -194 222z"/>
<path d="M5683 4735 c-61 -31 -141 -115 -186 -194 l-32 -56 -3 113 -3 113
-147 -3 -147 -3 0 -625 0 -625 148 -3 147 -3 0 491 0 490 41 68 c60 99 85 129
118 140 42 15 67 -6 80 -68 7 -33 11 -240 11 -585 l0 -535 145 0 145 0 0 553
c-1 595 -1 592 -55 662 -68 91 -169 117 -262 70z"/>
<path d="M2581 4724 c-72 -19 -116 -46 -174 -108 -64 -67 -112 -150 -150 -261
-31 -88 -31 -95 -32 -270 0 -161 2 -188 24 -255 60 -193 143 -304 281 -376 47
-25 66 -29 135 -29 68 0 88 4 135 28 81 42 133 89 184 166 85 127 125 273 126
456 0 162 -23 271 -82 390 -69 138 -169 230 -285 260 -69 18 -92 18 -162 -1z
m127 -34 c72 -67 107 -273 106 -625 -1 -411 -49 -605 -149 -605 -104 0 -151
200 -149 635 1 263 18 421 54 517 33 90 91 122 138 78z"/>
<path d="M3731 4725 c-53 -17 -94 -54 -132 -120 l-28 -49 -3 74 -3 75 -147 3
-148 3 0 -631 0 -631 148 3 147 3 5 530 5 530 27 50 c51 97 124 144 182 117
29 -13 55 -68 63 -130 9 -75 -12 -150 -57 -210 -22 -29 -40 -62 -40 -75 1 -37
35 -101 71 -131 28 -24 39 -27 78 -23 87 10 143 116 145 272 2 177 -73 315
-186 343 -57 15 -71 14 -127 -3z"/>
<path d="M4413 4725 c-66 -18 -117 -50 -166 -104 -58 -65 -80 -122 -80 -216
-1 -93 13 -142 53 -185 23 -25 36 -30 73 -30 57 0 99 32 123 96 17 44 17 45
-5 68 -24 26 -51 103 -51 147 0 65 23 134 55 166 43 43 107 46 153 8 51 -43
64 -93 70 -261 l5 -150 -79 -50 c-44 -28 -124 -77 -178 -110 -128 -76 -207
-153 -235 -228 -28 -77 -29 -231 -2 -292 42 -93 134 -163 214 -164 78 0 196
90 246 189 12 22 23 41 25 41 3 0 10 -24 16 -52 13 -63 52 -124 100 -156 98
-67 226 32 251 193 10 64 6 105 -6 51 -3 -14 -7 -37 -10 -51 -8 -37 -33 -30
-44 13 -7 22 -11 166 -11 352 -1 348 -7 398 -59 504 -35 71 -113 157 -171 186
-48 24 -152 50 -200 49 -19 0 -59 -7 -87 -14z m227 -770 l0 -266 -45 -44 c-57
-57 -99 -62 -139 -15 -37 44 -49 102 -43 200 6 105 26 165 83 251 43 65 114
139 134 139 6 0 10 -96 10 -265z"/>
<path d="M6875 4734 c-107 -21 -136 -29 -176 -50 -69 -34 -133 -111 -153 -182
-20 -71 -20 -111 -2 -180 30 -110 88 -182 281 -347 66 -57 137 -126 158 -154
74 -97 95 -196 58 -277 -28 -62 -63 -84 -132 -84 -69 0 -107 26 -134 92 -32
80 -19 227 21 242 19 7 18 60 -2 102 -9 18 -34 49 -55 69 -33 30 -46 35 -88
35 -37 0 -54 -6 -74 -24 -49 -45 -62 -84 -62 -181 0 -79 4 -96 28 -143 72
-136 224 -232 371 -232 151 0 311 98 384 235 23 43 27 62 27 140 0 81 -3 95
-30 145 -40 73 -124 156 -273 269 -136 104 -183 152 -218 226 -31 65 -30 118
2 182 55 111 188 122 248 21 11 -17 16 -50 16 -101 0 -67 -3 -79 -26 -107 -31
-36 -29 -81 6 -130 87 -123 233 -42 234 130 1 80 -25 141 -83 199 -81 81 -220
126 -326 105z"/>
<path d="M1030 2745 l0 -497 168 4 c176 4 192 7 245 56 l27 26 0 183 c0 166
-2 185 -19 202 -10 10 -25 21 -32 23 -10 3 -4 13 19 32 l32 28 0 173 c0 157
-2 175 -20 197 -37 48 -90 61 -262 66 l-158 4 0 -497z m272 398 c16 -14 18
-33 18 -166 0 -180 -3 -187 -87 -187 l-53 0 0 178 c0 98 3 182 7 185 13 14 96
7 115 -10z m-1 -443 c18 -10 19 -23 19 -180 0 -194 2 -190 -90 -190 l-51 0 1
190 1 190 50 0 c28 0 59 -5 70 -10z"/>
<path d="M2055 3228 c-3 -7 -4 -229 -3 -493 l3 -480 178 -3 177 -2 0 24 c0 40
-34 56 -122 56 l-78 0 0 185 0 185 73 0 c77 0 107 15 107 52 0 22 -21 28 -106
28 l-74 0 0 190 0 190 89 0 c96 0 115 9 109 52 -3 23 -4 23 -176 26 -132 2
-174 0 -177 -10z"/>
<path d="M2960 2745 l0 -495 175 0 175 0 0 30 c0 40 -23 50 -119 50 l-81 0 0
445 c0 508 9 465 -94 465 l-56 0 0 -495z"/>
<path d="M3860 2745 l0 -495 178 2 c173 3 177 4 180 25 5 37 -32 53 -125 53
l-83 0 0 445 c0 508 9 465 -94 465 l-56 0 0 -495z"/>
<path d="M4765 3218 c-3 -13 -4 -234 -3 -493 l3 -470 178 -3 177 -2 0 29 c0
41 -23 51 -119 51 l-81 0 0 185 0 184 82 3 c80 3 83 4 92 31 14 39 -2 47 -96
47 l-78 0 0 190 0 190 83 0 c94 0 121 12 115 51 l-3 24 -172 3 c-172 2 -173 2
-178 -20z"/>
<path d="M5660 3212 c0 -43 17 -52 92 -52 67 0 68 0 68 -26 0 -15 -9 -65 -19
-113 -11 -47 -31 -144 -46 -216 -14 -71 -35 -175 -46 -230 -11 -55 -29 -138
-40 -185 -10 -47 -19 -97 -19 -112 l0 -28 180 0 180 0 0 30 c0 40 -23 50 -120
50 l-82 0 7 33 c3 17 14 70 25 117 10 47 40 182 65 300 26 118 55 254 66 301
23 106 24 145 3 153 -9 3 -83 6 -165 6 l-149 0 0 -28z"/>
<path d="M6711 3218 c-5 -13 -14 -63 -20 -113 -7 -49 -20 -146 -31 -215 -10
-69 -28 -192 -40 -275 -12 -82 -28 -194 -36 -248 -8 -54 -12 -103 -8 -108 3
-5 32 -9 64 -9 73 0 90 14 90 78 0 88 5 93 69 90 l56 -3 6 -69 c4 -51 11 -73
24 -82 20 -15 130 -20 138 -6 3 4 -3 59 -13 122 -10 63 -30 196 -44 295 -51
347 -66 450 -73 505 l-8 55 -83 3 c-78 3 -83 2 -91 -20z m114 -478 c9 -102 19
-197 22 -212 5 -28 5 -28 -46 -28 -59 0 -56 -9 -42 133 5 51 15 155 22 232 15
165 19 155 44 -125z"/>
</g>
</svg>
